{"title":"Son Of Batman 2014 BRrip XVID AC3 ACAB","uid":9973597,"size":1664933794,"categoryP":"video","categoryS":"movies","magnet":"?xt=urn:btih:77373dfabaeccf3db238887d1947a7bd017083aa&amp;dn=Son+Of+Batman+2014+BRrip+XVID+AC3+ACAB&amp;tr=udp%3A%2F%2Ftracker.openbittorrent.com%3A80&amp;tr=udp%3A%2F%2Fopen.demonii.com%3A1337&amp;tr=udp%3A%2F%2Ftracker.coppersurfer.tk%3A6969&amp;tr=udp%3A%2F%2Fexodus.desync.com%3A6969","seeders":1,"leechers":1,"uploader":"xxxlavalxxx","files":-1,"time":1397658676,"description":" &lt;a href=&quot;\nhttp://www.imdb.com/title/tt3139072/&quot; rel=&quot;nofollow&quot; target=&quot;_NEW&quot;&gt;\nhttp://www.imdb.com/title/tt3139072/&lt;/a&gt;\n\n\nBatman learns he has a violent, unruly pre-teen son, secretly raised by the terrorist group the League of Assassins.\n\nDirector: Ethan Spaulding\nWriters: Bob Kane (characters), Grant Morrison (comic book)\nStars: Jason O'Mara, Stuart Allan, Thomas Gibson\nGenres: Animation | Action | Adventure | Crime | Drama | Family | Fantasy | Mystery\nCountry: USA\nLanguage: English\n\n\n\nFormat                                   : AVI\nFormat/Info                              : Audio Video Interleave\nFile size                                : 1.53 GiB\nDuration                                 : 1h 14mn\nOverall bit rate                         : 2 950 Kbps\nWriting library                          : VirtualDub build 30091/release\n\nVideo\nID                                       : 0\nFormat                                   : MPEG-4 Visual\nFormat profile                           : Advanced Simple@L5\nFormat settings, BVOP                    : 2\nFormat settings, QPel                    : No\nFormat settings, GMC                     : No warppoints\nFormat settings, Matrix                  : Default (H.263)\nMuxing mode                              : Packed bitstream\nCodec ID                                 : XVID\nCodec ID/Hint                            : XviD\nDuration                                 : 1h 14mn\nBit rate                                 : 2 492 Kbps\nWidth                                    : 848 pixels\nHeight                                   : 480 pixels\nDisplay aspect ratio                     : 16:9\nFrame rate                               : 23.976 fps\nColor space                              : YUV\nChroma subsampling                       : 4:2:0\nBit depth                                : 8 bits\nScan type                                : Progressive\nCompression mode                         : Lossy\nBits/(Pixel*Frame)                       : 0.255\nStream size                              : 1.29 GiB (84%)\nWriting library                          : XviD 1.2.1 (UTC 2008-12-04)\n\nAudio\nID                                       : 1\nFormat                                   : AC-3\nFormat/Info                              : Audio Coding 3\nMode extension                           : CM (complete main)\nFormat settings, Endianness              : Big\nCodec ID                                 : 2000\nDuration                                 : 1h 14mn\nBit rate mode                            : Constant\nBit rate                                 : 448 Kbps\nChannel(s)                               : 6 channels\nChannel positions                        : Front: L C R, Side: L R, LFE\nSampling rate                            : 48.0 KHz\nBit depth                                : 16 bits\nCompression mode                         : Lossy\nStream size                              : 238 MiB (15%)\n\n\n\nscreens\n &lt;a href=&quot;\nhttp://i.imgur.com/lBiuu2L.png&quot; rel=&quot;nofollow&quot; target=&quot;_NEW&quot;&gt;\nhttp://i.imgur.com/lBiuu2L.png&lt;/a&gt; &lt;a href=&quot;\nhttp://i.imgur.com/QDYqDeE.png&quot; rel=&quot;nofollow&quot; target=&quot;_NEW&quot;&gt;\nhttp://i.imgur.com/QDYqDeE.png&lt;/a&gt; &lt;a href=&quot;\nhttp://i.imgur.com/6z3ncvN.png&quot; rel=&quot;nofollow&quot; target=&quot;_NEW&quot;&gt;\nhttp://i.imgur.com/6z3ncvN.png&lt;/a&gt;","torrent":{"xt":"urn:btih:77373dfabaeccf3db238887d1947a7bd017083aa","amp;dn":"Son+Of+Batman+2014+BRrip+XVID+AC3+ACAB","amp;tr":["udp%3A%2F%2Ftracker.openbittorrent.com%3A80","udp%3A%2F%2Fopen.demonii.com%3A1337","udp%3A%2F%2Ftracker.coppersurfer.tk%3A6969","udp%3A%2F%2Fexodus.desync.com%3A6969"],"infoHash":"77373dfabaeccf3db238887d1947a7bd017083aa","infoHashBuffer":{"type":"Buffer","data":[119,55,61,250,186,236,207,61,178,56,136,125,25,71,167,189,1,112,131,170]},"announce":[],"urlList":[]}}